<?xml version="1.0" standalone="no"?>
<!DOCTYPE svg PUBLIC "-//W3C//DTD SVG 20010904//EN"
 "http://www.w3.org/TR/2001/REC-SVG-20010904/DTD/svg10.dtd">
<svg version="1.0" xmlns="http://www.w3.org/2000/svg"
 width="768.000000pt" height="168.000000pt" viewBox="0 0 768.000000 168.000000"
 preserveAspectRatio="xMidYMid meet">
<metadata>
Created by potrace 1.15, written by Peter Selinger 2001-2017
</metadata>
<g transform="translate(0.000000,168.000000) scale(0.100000,-0.100000)"
fill="#000000" stroke="none">
<path d="M5120 1473 c-39 -14 -40 -27 -40 -370 0 -399 -9 -373 125 -373 134 0
125 -26 125 370 l0 331 -25 24 c-21 22 -32 25 -97 24 -40 0 -80 -3 -88 -6z
m150 -368 l0 -315 -65 0 -65 0 0 315 0 315 65 0 65 0 0 -315z"/>
<path d="M4788 1441 c-30 -27 -33 -34 -31 -83 1 -29 1 -62 1 -73 0 -11 -2
-131 -4 -267 -6 -301 -11 -288 121 -288 130 0 125 -11 125 269 0 126 -4 241
-9 254 -7 16 -6 39 1 63 24 87 -30 154 -124 154 -39 0 -54 -6 -80 -29z m152
-431 l0 -220 -65 0 -65 0 0 220 0 220 65 0 65 0 0 -220z"/>
<path d="M6982 1418 c-81 -107 -129 -241 -119 -330 3 -26 31 -121 62 -211 44
-130 57 -183 62 -252 l6 -87 -29 4 c-28 3 -29 6 -36 64 -9 85 -23 131 -58 191
-46 80 -126 129 -190 117 -34 -7 -27 -28 -95 291 -36 170 -51 224 -67 238 -16
13 -39 17 -113 17 -74 0 -97 -4 -113 -17 -28 -25 -179 -652 -163 -681 15 -27
32 -32 120 -32 92 0 105 9 122 88 15 72 39 68 56 -8 13 -59 32 -80 73 -80 22
0 28 -6 37 -43 19 -69 59 -109 132 -132 22 -7 23 -5 17 20 -10 39 10 90 40
104 39 18 63 13 94 -17 28 -28 54 -97 44 -114 -3 -4 -25 -8 -50 -8 l-44 0 0
-50 0 -50 100 0 c97 0 100 -1 100 -22 0 -30 -31 -75 -65 -98 l-28 -18 31 -31
c17 -17 37 -31 46 -31 9 0 20 -15 27 -38 6 -21 20 -49 30 -63 l19 -24 20 23
c11 13 25 42 31 63 7 21 18 39 25 39 8 0 28 13 46 30 l33 30 -33 26 c-34 27
-62 72 -62 99 0 12 16 15 100 15 l100 0 0 50 0 50 -46 0 -47 0 6 40 c7 51 40
97 75 105 64 14 109 -34 98 -103 -4 -30 -3 -32 17 -26 143 44 185 203 80 307
-50 51 -102 64 -160 42 -95 -36 -156 -134 -176 -280 -11 -85 -12 -85 -41 -85
l-29 0 7 78 c7 85 23 147 85 324 26 75 41 134 41 165 0 102 -48 224 -127 321
-19 23 -38 42 -42 42 -5 0 -27 -24 -49 -52z m-440 -280 c54 -254 56 -264 38
-283 -9 -11 -23 -30 -29 -42 -14 -28 -57 -31 -64 -5 -3 9 -11 41 -17 70 l-12
53 -62 -3 -61 -3 -14 -67 -14 -68 -65 0 c-62 0 -64 1 -58 23 3 12 36 149 73
304 l68 283 80 0 80 0 57 -262z"/>
<path d="M139 1441 l-24 -19 -3 -309 c-2 -169 0 -318 3 -330 11 -44 31 -53
124 -53 118 0 121 3 121 143 l0 107 54 0 c83 0 101 20 101 109 0 89 -12 103
-95 109 -51 4 -60 7 -60 23 0 17 8 19 64 19 45 0 69 5 80 15 36 36 33 157 -4
187 -19 16 -44 18 -180 18 -140 0 -160 -2 -181 -19z m331 -91 l0 -50 -85 0
-85 0 0 -80 0 -80 80 0 80 0 0 -50 0 -50 -80 0 -80 0 0 -125 0 -125 -65 0 -65
0 0 305 0 305 150 0 150 0 0 -50z"/>
<path d="M3310 1440 c-16 -16 -20 -33 -20 -93 0 -90 11 -107 73 -114 l47 -6 0
-228 c0 -279 -5 -269 123 -269 129 0 121 -15 125 263 l3 235 42 5 c61 8 77 33
77 118 0 110 3 109 -245 109 -192 0 -206 -1 -225 -20z m410 -95 l0 -55 -60 0
-60 0 0 -250 0 -250 -65 0 -65 0 0 250 0 250 -60 0 -60 0 0 55 0 55 185 0 185
0 0 -55z"/>
<path d="M5709 1441 l-24 -19 -2 -311 c-3 -305 1 -355 30 -373 7 -4 89 -8 183
-8 212 0 209 -1 209 104 0 98 -10 109 -105 114 l-70 4 0 239 c0 282 6 269
-121 269 -61 0 -82 -4 -100 -19z m161 -296 l0 -255 90 0 90 0 0 -50 0 -50
-155 0 -155 0 0 305 0 305 65 0 65 0 0 -255z"/>
<path d="M848 1294 c-5 -4 -51 -6 -104 -5 -73 1 -102 -2 -120 -14 l-24 -15 0
-245 c0 -298 -5 -285 123 -285 123 0 121 -3 127 176 l5 148 39 8 c22 5 45 13
53 19 19 17 18 182 -2 199 -17 14 -87 25 -97 14z m55 -114 c0 -54 -1 -55 -31
-58 -20 -2 -40 -14 -57 -33 -24 -29 -25 -36 -25 -165 l0 -134 -65 0 -65 0 0
204 c0 112 -3 211 -6 220 -5 14 3 16 55 16 l61 0 0 -32 0 -33 23 26 c29 35 56
49 86 46 22 -2 24 -6 24 -57z"/>
<path d="M1135 1285 c-127 -28 -142 -46 -118 -130 8 -27 20 -56 26 -63 7 -9 3
-20 -15 -40 -39 -42 -51 -72 -52 -132 -1 -107 73 -191 170 -191 175 -1 270 2
280 8 26 18 29 55 24 228 -5 156 -9 185 -27 220 -11 22 -29 48 -40 57 -50 46
-156 64 -248 43z m184 -70 c56 -29 69 -75 73 -263 l3 -162 -57 0 c-51 0 -58 2
-58 20 0 25 -1 25 -47 -6 -95 -64 -215 14 -200 130 10 75 80 131 176 143 57 6
64 20 30 54 -18 18 -29 20 -68 16 -25 -3 -55 -8 -67 -12 -17 -5 -22 0 -31 29
-10 32 -9 38 7 46 60 32 182 35 239 5z"/>
<path d="M1785 1290 c-16 -3 -70 -5 -120 -2 -78 4 -93 2 -114 -15 l-24 -19 2
-245 c2 -293 -5 -279 126 -279 64 0 87 4 100 16 15 15 17 15 34 0 13 -12 38
-16 103 -16 125 0 120 -9 116 242 -3 202 -3 205 -30 245 -39 59 -122 90 -193
73z m100 -66 c58 -27 69 -65 73 -261 l4 -173 -71 0 -71 0 0 159 c0 132 -3 162
-16 175 -21 21 -40 20 -64 -4 -18 -18 -20 -33 -20 -175 l0 -155 -65 0 -65 0 0
168 c0 92 -3 191 -6 220 l-7 52 62 0 c59 0 61 -1 61 -27 l0 -26 23 21 c45 43
106 53 162 26z"/>
<path d="M2303 1290 c-147 -30 -231 -150 -221 -315 9 -131 67 -207 187 -242
46 -13 67 -14 119 -5 35 6 70 16 77 22 20 16 20 109 1 155 -14 32 -17 34 -72
37 -58 3 -58 3 -67 40 -6 26 -5 45 5 65 12 25 19 28 65 31 28 2 56 9 62 16 15
18 34 124 27 151 -10 38 -103 61 -183 45z m123 -63 c3 -3 3 -24 -1 -46 -7 -40
-8 -41 -47 -41 -80 0 -113 -45 -106 -148 5 -82 33 -112 104 -112 l44 0 0 -45
c0 -43 -1 -44 -35 -51 -81 -15 -172 20 -215 83 -33 48 -41 172 -15 239 20 52
81 108 133 123 37 10 127 9 138 -2z"/>
<path d="M2678 1286 c-122 -44 -176 -146 -166 -312 9 -157 96 -247 238 -248
121 0 201 62 237 183 21 73 13 194 -17 256 -52 108 -180 161 -292 121z m185
-79 c50 -38 71 -88 75 -185 4 -73 1 -89 -22 -135 -14 -29 -40 -62 -59 -74 -64
-44 -160 -40 -222 8 -79 63 -95 243 -29 342 52 79 182 102 257 44z"/>
<path d="M2714 1118 c-20 -39 -23 -163 -5 -207 17 -40 47 -49 74 -22 37 36 37
210 1 246 -25 24 -52 18 -70 -17z"/>
<path d="M4067 1294 c-4 -5 -51 -7 -103 -6 -75 3 -101 0 -120 -13 l-25 -16 3
-250 c4 -296 -4 -279 123 -279 121 0 119 -2 125 176 l5 148 42 9 c59 11 68 27
68 118 0 59 -4 82 -16 94 -18 18 -90 31 -102 19z m63 -114 c0 -60 0 -60 -29
-60 -17 0 -42 -10 -58 -24 -28 -24 -28 -25 -31 -165 l-4 -141 -64 0 -64 0 0
220 0 220 54 0 c51 0 54 -1 59 -29 l6 -30 35 35 c24 24 43 34 65 34 l31 0 0
-60z"/>
<path d="M4370 1290 c-83 -17 -130 -40 -136 -66 -7 -25 12 -110 28 -131 7 -8
-1 -25 -24 -53 -29 -37 -33 -50 -36 -113 -3 -66 -1 -76 26 -118 34 -53 87 -82
146 -81 23 0 91 1 151 1 159 0 151 -11 147 208 -2 98 -8 195 -13 215 -27 103
-156 165 -289 138z m172 -77 c56 -32 66 -67 70 -255 l4 -168 -58 0 c-52 0 -58
2 -58 21 l0 20 -30 -21 c-74 -52 -168 -30 -202 48 -46 104 27 203 163 219 39
5 49 10 49 24 0 10 -11 26 -25 35 -24 16 -35 16 -129 2 -15 -2 -22 5 -29 30
-12 39 -10 41 50 58 61 18 154 11 195 -13z"/>
<path d="M261 658 c-81 -40 -142 -159 -126 -245 14 -75 74 -123 153 -123 41 0
101 33 110 60 3 8 -9 2 -27 -13 -39 -33 -83 -35 -129 -7 -50 31 -72 75 -72
145 0 97 53 169 132 181 30 5 41 2 62 -19 36 -36 35 -80 -3 -118 -35 -34 -51
-36 -76 -9 -15 17 -16 24 -7 45 15 32 0 33 -18 1 -16 -31 -6 -73 19 -81 30 -9
89 20 111 57 11 18 20 50 20 71 0 74 -63 98 -149 55z"/>
<path d="M4647 660 c-14 -11 -31 -36 -37 -56 -15 -46 7 -84 49 -84 26 0 70 34
59 45 -3 3 -11 -1 -18 -10 -17 -20 -43 -19 -63 3 -22 25 -21 44 4 76 25 32 36
33 80 1 22 -17 42 -24 56 -20 20 5 21 3 11 -32 -6 -22 -8 -74 -4 -123 6 -75 4
-89 -14 -117 -18 -31 -37 -38 -80 -34 -8 1 -27 15 -41 31 -19 23 -28 27 -37
18 -18 -18 -15 -27 21 -48 91 -56 187 12 187 134 0 49 3 57 16 52 9 -3 20 -6
25 -6 5 0 9 -27 9 -60 0 -89 32 -140 89 -140 22 0 81 46 81 63 0 6 -11 0 -24
-12 -31 -29 -63 -24 -90 12 -29 39 -35 170 -11 233 21 54 57 83 81 64 12 -11
18 -10 31 3 15 15 14 16 -9 22 -53 13 -109 -39 -137 -126 -10 -32 -14 -35 -41
-31 -28 4 -30 7 -30 51 1 25 7 57 15 71 8 14 14 30 14 35 0 6 -4 2 -10 -7 -20
-35 -44 -39 -80 -13 -40 30 -68 31 -102 5z"/>
<path d="M2949 647 c-42 -28 -57 -66 -41 -102 10 -22 18 -26 45 -23 25 2 33 8
35 26 3 21 2 22 -17 10 -18 -11 -23 -10 -38 5 -16 16 -16 20 -3 44 17 31 56
44 105 36 33 -5 33 -6 19 -29 -9 -14 -15 -40 -13 -66 1 -24 -3 -53 -10 -65 -6
-13 -7 -23 -2 -23 5 0 11 6 14 13 7 18 27 -39 27 -78 0 -69 -104 -112 -161
-66 -30 24 -32 87 -4 107 29 21 72 18 80 -6 8 -24 0 -39 -29 -50 l-21 -9 23 0
c12 -1 31 8 42 19 54 54 -19 105 -90 63 -72 -42 -63 -139 15 -159 98 -24 190
69 170 173 -8 45 -7 48 24 48 14 1 27 7 29 14 4 11 -4 13 -36 9 -38 -6 -40 -4
-46 24 -7 37 8 68 35 68 11 0 30 5 42 12 21 11 20 13 -18 19 -80 15 -140 10
-176 -14z"/>
<path d="M738 628 c-37 -31 -48 -62 -48 -141 0 -51 -5 -88 -16 -108 -8 -17
-13 -33 -10 -36 3 -3 9 3 13 13 6 15 9 10 13 -21 3 -25 11 -41 21 -43 16 -3
73 47 64 56 -3 3 -12 -4 -21 -16 -25 -36 -34 -26 -34 37 0 51 5 69 35 118 40
67 53 116 35 138 -15 18 -31 19 -52 3z"/>
<path d="M1113 625 c-28 -20 -43 -72 -43 -155 -1 -37 -7 -76 -15 -90 -19 -33
-18 -50 0 -26 15 20 15 20 15 0 0 -11 7 -30 16 -42 43 -62 137 26 108 102 -7
18 -46 21 -75 6 -10 -6 -19 -8 -19 -5 0 4 18 43 40 87 43 86 47 107 28 126
-16 16 -29 15 -55 -3z"/>
<path d="M4162 633 c-27 -11 -42 -62 -42 -142 0 -63 -4 -87 -21 -115 -22 -37
-17 -50 7 -18 12 15 13 12 14 -26 0 -54 22 -53 31 1 6 36 33 77 51 77 4 0 8
-20 8 -44 0 -53 8 -76 25 -76 17 0 65 39 65 52 0 7 -10 2 -23 -10 -30 -28 -37
-20 -37 40 0 59 -18 71 -61 39 -27 -20 -29 -21 -29 -3 0 11 16 49 35 86 53
103 43 166 -23 139z"/>
<path d="M1555 421 c-17 -10 -39 -30 -48 -44 -19 -29 -22 -41 -8 -33 5 3 12
-5 15 -19 8 -30 45 -42 77 -24 17 9 24 9 27 0 6 -18 37 -12 60 12 29 31 28 46
-1 19 -13 -12 -27 -19 -30 -15 -4 3 -7 30 -7 60 0 39 -4 53 -14 53 -8 0 -20 2
-28 5 -7 3 -27 -3 -43 -14z"/>
<path d="M5906 409 c-44 -38 -68 -76 -42 -66 11 4 16 1 16 -11 0 -37 51 -57
78 -30 8 8 15 8 26 -1 8 -7 24 -10 36 -6 20 6 46 42 37 52 -3 2 -10 -5 -17
-16 -19 -37 -30 -23 -30 39 0 52 -2 60 -19 60 -11 0 -26 3 -34 6 -8 3 -30 -8
-51 -27z"/>
<path d="M2396 387 c-33 -33 -38 -42 -23 -45 9 -2 17 -10 17 -18 0 -8 12 -20
26 -26 21 -10 31 -9 55 4 l29 17 0 -72 c0 -50 -5 -80 -16 -95 -20 -29 -54 -26
-70 6 -9 19 -13 20 -23 8 -10 -11 -7 -17 11 -30 32 -22 62 -20 94 7 23 20 28
34 32 85 3 48 9 66 28 83 13 12 24 27 24 32 0 6 -11 0 -25 -13 l-25 -23 0 59
0 59 -47 2 c-43 1 -50 -2 -87 -40z"/>
<path d="M6148 390 l-40 -39 32 -31 c34 -34 55 -37 88 -14 l22 15 0 -73 c0
-51 -5 -80 -16 -96 -20 -29 -54 -26 -70 6 -9 19 -13 20 -23 8 -10 -11 -7 -17
11 -30 26 -19 48 -20 81 -5 32 15 47 49 47 108 0 38 5 52 25 71 14 13 25 28
25 33 0 6 -11 0 -25 -13 l-25 -23 0 59 0 60 -46 2 c-42 1 -51 -2 -86 -38z"/>
</g>
</svg>
