<?xml version="1.0" standalone="no"?>
<!DOCTYPE svg PUBLIC "-//W3C//DTD SVG 20010904//EN"
 "http://www.w3.org/TR/2001/REC-SVG-20010904/DTD/svg10.dtd">
<svg version="1.0" xmlns="http://www.w3.org/2000/svg"
 width="2400.000000pt" height="525.000000pt" viewBox="0 0 2400.000000 525.000000"
 preserveAspectRatio="xMidYMid meet">
<metadata>
Created by potrace 1.15, written by Peter Selinger 2001-2017
</metadata>
<g transform="translate(0.000000,525.000000) scale(0.100000,-0.100000)"
fill="#000000" stroke="none">
<path d="M16006 4608 c-57 -16 -109 -72 -124 -137 -17 -76 -17 -1966 0 -2042
16 -69 66 -121 131 -137 59 -15 443 -16 502 -1 57 14 110 67 124 124 15 62 15
2008 0 2070 -14 57 -67 110 -124 124 -55 14 -455 13 -509 -1z m464 -1158 l0
-990 -205 0 -205 0 0 990 0 990 205 0 205 0 0 -990z"/>
<path d="M15125 4595 c-72 -17 -130 -50 -180 -100 -55 -54 -78 -99 -100 -197
-18 -76 -18 -78 3 -163 11 -47 30 -99 42 -115 l21 -30 -24 -32 c-13 -18 -29
-54 -36 -80 -16 -69 -16 -1377 1 -1449 16 -69 66 -121 131 -137 59 -15 443
-16 502 -1 57 14 110 67 124 124 15 60 15 1419 0 1479 -6 24 -21 55 -35 69
-29 31 -29 32 -5 66 32 44 54 147 47 221 -7 90 -20 128 -65 197 -82 127 -261
189 -426 148z m202 -189 c68 -32 103 -83 110 -164 10 -109 -47 -185 -160 -213
-97 -24 -209 26 -243 108 -18 42 -18 135 0 176 43 102 180 145 293 93z m113
-1251 l0 -695 -205 0 -205 0 0 695 0 695 205 0 205 0 0 -695z"/>
<path d="M21870 4498 c-214 -258 -348 -521 -407 -798 -22 -104 -24 -345 -4
-435 7 -33 64 -199 126 -370 164 -453 199 -565 230 -745 14 -82 35 -321 35
-407 l0 -43 -89 0 -89 0 -7 92 c-34 473 -183 806 -435 973 -131 87 -250 116
-371 90 -40 -8 -75 -13 -77 -11 -2 3 -73 326 -158 718 -209 968 -191 894 -226
934 -50 56 -95 64 -380 64 -285 0 -324 -6 -377 -59 l-36 -36 -240 -1000 c-271
-1122 -259 -1051 -184 -1126 51 -51 95 -59 329 -59 232 0 274 8 324 57 37 37
35 32 94 298 l18 80 46 3 c38 2 47 0 51 -15 3 -10 20 -87 38 -172 31 -146 35
-157 69 -191 43 -43 98 -60 192 -60 l64 0 11 -87 c25 -184 137 -334 308 -414
67 -31 195 -74 195 -64 0 1 -7 22 -16 46 -21 59 -21 163 1 228 24 75 76 125
149 146 146 42 267 -22 343 -180 33 -70 70 -226 57 -246 -3 -5 -72 -9 -155 -9
l-149 0 0 -170 0 -170 320 0 320 0 -6 -42 c-22 -144 -105 -263 -229 -329 -25
-13 -45 -31 -45 -40 0 -28 78 -126 126 -158 41 -27 68 -36 134 -44 9 -1 18
-23 25 -57 6 -30 19 -79 29 -108 18 -54 98 -183 133 -214 18 -16 21 -15 61 35
61 76 99 154 125 254 l23 88 39 6 c80 11 177 85 219 167 22 43 21 44 -26 67
-23 11 -68 44 -100 74 -68 62 -124 166 -134 249 l-7 52 322 0 321 0 0 170 0
170 -155 0 -155 0 0 33 c0 19 9 69 20 111 55 216 184 326 348 298 71 -12 118
-39 151 -88 51 -74 65 -197 33 -290 l-18 -52 70 19 c279 76 441 276 440 544
-1 165 -64 319 -177 429 -125 123 -280 181 -417 156 -362 -66 -624 -484 -657
-1047 l-6 -113 -90 0 -90 0 6 158 c13 317 45 445 250 1012 126 349 133 372
147 498 34 307 -93 694 -334 1016 -78 104 -183 226 -195 226 -4 0 -49 -51
-101 -112z m-1428 -939 l178 -821 -51 -51 c-34 -34 -65 -81 -92 -139 l-42 -88
-80 3 -79 2 -45 218 -44 217 -194 0 c-106 0 -193 -2 -193 -5 0 -2 -20 -99 -45
-215 -25 -116 -45 -213 -45 -215 0 -3 -90 -5 -200 -5 -121 0 -200 4 -200 10 0
9 447 1875 455 1898 3 9 63 12 252 12 l248 0 177 -821z"/>
<path d="M19991 3978 c-6 -29 -24 -132 -40 -228 -17 -96 -48 -262 -69 -367
l-39 -193 154 0 c142 0 154 1 149 18 -7 24 -90 506 -116 677 -12 77 -23 141
-25 143 -2 2 -8 -20 -14 -50z"/>
<path d="M486 4548 c-57 -16 -109 -72 -124 -137 -17 -76 -17 -1906 0 -1982 16
-69 66 -121 131 -137 60 -16 443 -16 503 -1 58 15 108 65 123 124 7 27 11 159
11 349 l0 306 151 0 c82 0 170 5 194 11 55 14 110 66 124 117 14 48 14 366 0
414 -14 51 -69 103 -124 117 -24 6 -112 11 -194 11 l-151 0 0 64 0 64 178 5
c98 2 194 9 214 16 48 15 94 62 109 109 18 56 23 334 8 406 -16 75 -63 127
-132 144 -59 15 -964 15 -1021 0z m974 -328 l0 -160 -255 0 -255 0 0 -250 0
-250 240 0 240 0 0 -155 0 -155 -240 0 -240 0 0 -395 0 -395 -205 0 -205 0 0
960 0 960 460 0 460 0 0 -160z"/>
<path d="M10408 4548 c-48 -13 -104 -68 -117 -116 -13 -45 -14 -392 -1 -446
21 -91 111 -136 273 -136 l87 0 0 -684 c0 -504 3 -698 12 -737 16 -69 66 -121
131 -137 59 -15 443 -16 502 -1 57 14 110 67 124 124 7 30 11 266 11 739 l0
696 89 0 c173 0 254 41 279 143 15 59 16 374 1 432 -14 57 -67 110 -124 124
-56 14 -1213 13 -1267 -1z m1222 -338 l0 -170 -190 0 -190 0 0 -790 0 -790
-205 0 -205 0 -2 788 -3 787 -187 3 -188 2 0 170 0 170 585 0 585 0 0 -170z"/>
<path d="M17896 4548 c-57 -16 -109 -72 -124 -137 -19 -84 -17 -1916 3 -1990
17 -64 63 -117 115 -131 45 -13 1010 -13 1064 0 56 13 104 64 121 131 18 66
20 301 4 383 -9 44 -20 65 -50 94 -51 52 -102 62 -315 62 l-174 0 0 711 c0
484 -4 724 -11 754 -14 57 -67 110 -124 124 -55 14 -455 13 -509 -1z m464
-968 l0 -800 270 0 270 0 0 -160 0 -160 -475 0 -475 0 0 960 0 960 205 0 205
0 0 -800z"/>
<path d="M2620 4042 c-36 -10 -75 -23 -87 -30 -19 -10 -33 -10 -78 3 -44 13
-94 16 -253 13 -182 -3 -201 -5 -244 -26 -36 -18 -52 -34 -69 -69 l-22 -46 2
-701 c1 -493 5 -717 13 -756 15 -69 65 -122 131 -138 59 -15 443 -16 502 -1
57 14 110 67 124 124 7 28 11 181 11 427 0 378 0 384 23 428 l22 45 85 6 c97
7 134 19 173 57 46 44 57 104 57 309 0 101 -5 204 -11 228 -13 53 -67 110
-118 126 -65 20 -190 20 -261 1z m194 -168 c14 -5 16 -31 16 -188 l0 -181 -78
-1 c-120 -1 -199 -52 -251 -164 l-26 -55 -3 -412 -3 -413 -203 0 -203 0 -7
663 c-3 364 -9 677 -12 695 l-6 32 180 0 180 0 5 -32 c3 -18 9 -63 13 -100 3
-38 9 -68 13 -68 4 0 15 16 24 36 36 76 135 160 217 185 31 9 123 11 144 3z"/>
<path d="M8445 4040 c-118 -27 -184 -55 -263 -110 -88 -61 -138 -113 -199
-204 -58 -86 -85 -152 -120 -292 -25 -98 -28 -126 -28 -284 0 -156 3 -186 27
-280 36 -145 61 -205 114 -286 60 -90 104 -135 188 -195 78 -56 141 -81 267
-109 217 -49 460 1 633 130 168 124 260 299 305 580 35 215 -10 511 -105 690
-76 142 -213 270 -344 321 -152 58 -328 73 -475 39z m300 -175 c216 -46 365
-203 427 -452 32 -126 31 -390 -1 -508 -36 -135 -82 -218 -164 -300 -140 -140
-334 -194 -542 -150 -272 57 -434 284 -452 635 -14 270 55 486 200 630 133
132 333 187 532 145z"/>
<path d="M8575 3588 c-84 -23 -128 -115 -147 -310 -14 -134 -1 -317 28 -406
47 -145 180 -192 254 -90 39 54 57 115 71 246 21 194 -8 412 -66 500 -36 55
-84 76 -140 60z"/>
<path d="M12690 4042 c-36 -10 -75 -23 -87 -30 -19 -10 -33 -10 -78 3 -44 13
-94 16 -253 13 -182 -3 -201 -5 -244 -26 -36 -18 -52 -34 -69 -69 l-22 -46 2
-701 c1 -493 5 -717 13 -756 15 -69 65 -122 131 -138 59 -15 443 -16 502 -1
57 14 110 67 124 124 7 28 11 181 11 427 0 378 0 384 23 428 l22 45 85 6 c97
7 134 19 173 57 46 44 57 104 57 309 0 101 -5 204 -11 228 -13 53 -67 110
-118 126 -65 20 -190 20 -261 1z m194 -168 c14 -5 16 -31 16 -188 l0 -181 -78
-1 c-120 -1 -199 -52 -251 -164 l-26 -55 -3 -412 -3 -413 -203 0 -203 0 -7
663 c-3 364 -9 677 -12 695 l-6 32 180 0 180 0 5 -32 c3 -18 9 -63 13 -100 3
-38 9 -68 13 -68 4 0 15 16 24 36 36 76 135 160 217 185 31 9 123 11 144 3z"/>
<path d="M3605 4035 c-206 -38 -358 -91 -410 -143 -34 -34 -55 -83 -55 -129 0
-49 82 -309 111 -352 l30 -44 -35 -29 c-40 -33 -112 -130 -145 -195 -30 -60
-61 -202 -61 -282 0 -91 41 -250 82 -320 78 -130 209 -225 358 -261 115 -27
196 -25 315 5 93 23 101 24 149 10 61 -18 403 -21 471 -4 93 23 144 110 130
219 -4 30 -10 260 -14 510 -8 445 -8 457 -33 551 -30 111 -60 175 -117 247
-120 151 -326 233 -586 231 -66 0 -151 -7 -190 -14z m362 -181 c196 -40 305
-141 359 -331 14 -48 18 -137 25 -528 4 -258 11 -485 15 -502 l6 -33 -185 0
-185 0 -7 48 c-14 100 -11 98 -65 48 -161 -151 -423 -154 -582 -7 -130 120
-165 339 -82 517 81 172 295 286 583 310 l81 7 0 33 c0 69 -37 124 -105 155
-79 36 -250 22 -376 -32 -27 -12 -52 -20 -54 -17 -3 2 -21 58 -41 123 -28 94
-33 120 -22 127 28 17 204 69 282 82 111 19 262 19 353 0z"/>
<path d="M3809 3122 c-131 -35 -194 -106 -194 -222 0 -50 6 -75 24 -107 59
-103 192 -106 268 -6 28 36 28 39 31 195 l3 158 -33 -1 c-18 0 -63 -8 -99 -17z"/>
<path d="M5533 4025 c-51 -13 -98 -27 -103 -30 -6 -4 -28 1 -48 12 -33 16 -63
18 -257 18 -210 0 -222 -1 -267 -23 -36 -18 -52 -34 -69 -69 l-22 -46 2 -701
c1 -493 5 -717 13 -756 15 -69 65 -122 131 -138 59 -15 443 -16 502 -1 46 12
114 70 116 98 0 12 3 10 8 -4 15 -37 72 -83 116 -94 59 -15 443 -14 502 1 30
7 59 24 83 48 60 60 62 85 58 655 l-5 500 -26 103 c-52 200 -139 316 -294 396
-54 27 -194 56 -273 55 -45 0 -112 -9 -167 -24z m327 -181 c108 -42 178 -119
222 -244 23 -64 23 -70 26 -602 l3 -538 -205 0 -205 0 -3 488 c-3 484 -3 487
-26 529 -41 79 -114 101 -192 61 -36 -18 -51 -35 -75 -82 l-30 -60 -3 -468 -3
-468 -203 0 -203 0 -7 663 c-3 364 -9 677 -12 695 l-6 32 180 0 180 0 5 -32
c3 -18 9 -55 13 -81 l6 -48 54 51 c57 54 152 104 225 120 64 13 207 5 259 -16z"/>
<path d="M7185 4029 c-166 -35 -242 -69 -372 -166 -79 -60 -174 -175 -224
-275 -17 -33 -45 -112 -62 -176 -30 -109 -32 -128 -32 -277 0 -142 3 -172 28
-270 49 -194 140 -342 271 -440 94 -70 159 -102 275 -133 83 -22 117 -26 251
-26 131 -1 170 3 250 23 83 21 100 29 136 65 55 54 62 104 40 286 -23 184 -31
213 -78 260 -47 46 -103 59 -180 41 -163 -37 -219 15 -220 203 -1 111 13 160
59 209 23 23 35 27 82 27 31 0 72 -5 91 -10 55 -17 126 -3 166 32 19 17 39 40
45 50 6 11 26 99 45 195 29 154 32 182 22 222 -23 95 -61 124 -201 157 -127
29 -263 31 -392 3z m339 -174 c39 -8 73 -18 76 -22 6 -7 -32 -245 -45 -280 -3
-9 -13 -9 -37 -2 -63 19 -180 13 -237 -11 -140 -61 -224 -263 -194 -468 23
-157 78 -248 178 -298 46 -22 68 -26 133 -26 42 1 92 6 111 11 19 6 36 10 37
8 6 -6 35 -278 30 -285 -23 -37 -340 -50 -456 -18 -217 59 -369 220 -426 451
-27 106 -24 344 4 448 73 267 275 451 543 496 84 14 207 12 283 -4z"/>
<path d="M13715 4043 c-63 -9 -243 -53 -315 -78 -123 -42 -175 -90 -186 -175
-8 -62 64 -316 107 -379 l30 -44 -35 -29 c-40 -33 -112 -130 -145 -195 -30
-60 -61 -202 -61 -282 0 -71 36 -235 63 -287 32 -63 109 -155 159 -192 77 -56
127 -80 220 -102 111 -27 195 -25 313 5 93 23 101 24 149 10 61 -18 403 -21
471 -4 93 23 144 110 130 219 -4 30 -10 260 -14 510 -8 445 -8 457 -33 551
-30 111 -60 175 -117 247 -120 152 -328 233 -586 230 -66 0 -133 -3 -150 -5z
m322 -189 c196 -40 305 -141 359 -331 14 -48 18 -137 25 -528 4 -258 11 -485
15 -502 l6 -33 -185 0 -185 0 -7 48 c-14 100 -11 98 -65 48 -161 -151 -423
-154 -582 -7 -130 120 -165 339 -82 517 81 172 295 286 583 310 l81 7 0 33 c0
69 -37 124 -105 155 -79 36 -250 22 -376 -32 -27 -12 -52 -20 -54 -17 -3 2
-21 58 -41 123 -28 94 -33 120 -22 127 28 17 204 69 282 82 111 19 262 19 353
0z"/>
<path d="M13879 3122 c-131 -35 -194 -106 -194 -222 0 -50 6 -75 24 -107 59
-103 192 -106 268 -6 28 36 28 39 31 195 l3 158 -33 -1 c-18 0 -63 -8 -99 -17z"/>
<path d="M18750 3305 l0 -135 215 0 215 0 0 135 0 135 -215 0 -215 0 0 -135z"/>
<path d="M929 2106 c-131 -37 -296 -163 -384 -295 -175 -264 -180 -578 -13
-756 103 -111 214 -151 393 -143 131 6 200 35 281 120 52 55 56 61 41 76 -9 9
-18 14 -20 11 -53 -70 -76 -92 -120 -113 -132 -65 -314 -33 -425 74 -100 96
-151 215 -159 370 -10 182 52 354 171 476 168 170 401 177 490 15 59 -109 29
-264 -67 -346 -77 -66 -164 -70 -224 -10 -30 30 -33 39 -33 92 0 57 14 92 47
118 8 7 10 15 3 25 -8 12 -17 7 -55 -30 -56 -55 -79 -112 -73 -181 4 -42 12
-57 41 -87 33 -33 42 -36 102 -40 58 -4 73 -1 129 27 80 39 157 120 198 208
40 85 50 199 24 268 -21 53 -81 110 -133 124 -50 14 -156 12 -214 -3z"/>
<path d="M14574 2096 c-64 -30 -138 -113 -165 -186 -16 -42 -20 -72 -17 -127
4 -80 20 -111 79 -151 88 -61 245 11 275 126 11 39 -4 36 -49 -11 -55 -56
-107 -69 -164 -40 -57 28 -83 73 -83 148 0 51 5 69 30 108 50 80 129 113 191
81 19 -9 54 -35 79 -57 79 -70 139 -83 219 -47 40 18 43 19 36 2 -68 -167 -73
-235 -49 -632 8 -126 -8 -195 -59 -262 -60 -78 -163 -113 -258 -88 -61 16
-122 82 -145 154 -10 31 -21 56 -25 56 -4 0 -29 -19 -55 -43 l-48 -44 21 -34
c32 -50 72 -85 128 -111 42 -19 67 -23 155 -23 93 0 111 3 163 27 108 51 200
175 228 306 7 35 10 106 7 185 -5 127 -4 128 16 122 12 -4 44 -9 73 -12 l51
-5 -5 -107 c-12 -234 43 -407 155 -485 34 -24 56 -31 106 -34 105 -7 178 30
256 129 32 40 38 54 29 65 -16 20 -21 18 -44 -16 -27 -41 -97 -87 -146 -95
-77 -13 -156 51 -204 168 -66 160 -63 504 6 680 42 106 119 197 180 212 26 6
89 -17 89 -33 0 -4 7 -16 15 -27 15 -18 17 -17 60 25 25 24 45 48 45 52 0 21
-67 48 -120 48 -166 0 -322 -177 -390 -445 -16 -64 -20 -70 -42 -66 -37 5
-122 6 -137 1 -22 -8 -33 62 -28 185 5 133 15 166 72 249 36 53 41 65 28 71
-9 3 -19 2 -23 -2 -4 -4 -24 -30 -45 -56 -74 -93 -119 -96 -216 -15 -33 27
-75 56 -94 64 -51 21 -122 17 -181 -10z"/>
<path d="M9341 2084 c-117 -31 -234 -126 -259 -211 -18 -60 -15 -143 7 -183
69 -131 261 -90 261 55 0 19 -3 35 -6 35 -3 0 -18 -13 -33 -29 -16 -17 -41
-33 -56 -37 -56 -14 -125 51 -125 118 1 43 37 106 80 137 72 52 189 62 342 30
l47 -11 -39 -49 c-67 -85 -84 -178 -56 -309 l14 -65 -39 -56 c-34 -50 -37 -58
-24 -69 9 -7 17 -11 19 -9 1 2 13 21 25 42 12 20 26 37 30 37 17 0 71 -205 71
-265 -1 -108 -62 -195 -175 -250 -75 -37 -194 -41 -265 -9 -155 71 -199 258
-86 370 92 93 242 76 261 -30 12 -64 -26 -115 -107 -142 -26 -8 -48 -20 -48
-25 0 -19 87 -9 138 17 139 69 159 214 39 276 -52 26 -159 22 -229 -9 -62 -28
-134 -96 -166 -158 -34 -66 -36 -170 -5 -231 50 -95 144 -144 279 -144 130 0
241 48 331 142 122 129 151 283 89 480 l-23 77 32 15 c48 23 74 20 105 -14 15
-16 33 -30 39 -30 12 0 24 57 19 91 -5 37 -80 39 -155 5 -30 -14 -57 -26 -58
-26 -2 0 -11 23 -20 51 -12 35 -16 74 -14 128 3 67 8 83 32 114 27 36 30 37
90 37 88 1 194 51 180 86 -4 11 -10 11 -35 -2 -27 -14 -39 -13 -155 10 -143
29 -268 33 -352 10z"/>
<path d="M2335 1976 c-47 -20 -131 -119 -156 -184 -21 -52 -23 -76 -27 -287
l-4 -230 -33 -70 c-19 -38 -42 -82 -52 -97 -13 -21 -15 -30 -6 -39 16 -16 29
-5 63 54 l30 52 0 -96 c0 -113 12 -157 46 -165 61 -15 132 25 205 117 30 38
31 41 15 57 -16 16 -18 16 -28 -3 -20 -35 -107 -117 -120 -113 -10 4 -14 48
-16 185 l-2 181 71 117 c39 64 93 164 121 221 44 89 52 115 56 179 4 72 4 75
-26 104 -34 35 -83 41 -137 17z m77 -43 c55 -63 21 -199 -104 -417 l-53 -91
-3 175 c-2 105 2 193 8 220 24 97 110 161 152 113z"/>
<path d="M3493 1965 c-22 -14 -55 -46 -72 -72 -54 -82 -62 -126 -70 -378 l-6
-230 -53 -109 c-40 -83 -49 -112 -40 -118 22 -13 24 -10 60 62 l35 70 6 -85
c9 -132 48 -185 141 -193 93 -8 182 53 237 160 29 56 36 151 16 200 -39 94
-182 105 -269 21 l-28 -27 0 50 c0 43 9 66 66 165 119 208 164 319 164 401 0
41 -5 54 -29 79 -39 38 -98 40 -158 4z m94 -37 c47 -52 30 -159 -52 -321 -91
-180 -87 -182 -82 43 4 209 13 252 58 284 32 22 52 20 76 -6z m42 -664 c83
-69 48 -257 -56 -300 -79 -33 -112 3 -120 134 -5 82 -4 93 17 127 40 65 109
82 159 39z"/>
<path d="M13015 1972 c-17 -10 -45 -35 -63 -56 -62 -71 -65 -86 -71 -366 l-6
-255 -42 -80 c-23 -44 -50 -92 -60 -107 -14 -22 -15 -30 -5 -40 16 -16 29 -2
76 76 l35 59 3 -157 3 -157 48 30 47 31 0 80 c0 66 5 90 25 129 44 88 115 140
150 111 12 -10 15 -42 15 -159 0 -173 7 -194 63 -199 52 -4 114 34 171 105 41
52 44 59 30 73 -14 13 -17 12 -32 -10 -24 -37 -98 -110 -111 -110 -22 0 -31
52 -31 184 0 120 -2 136 -21 160 -43 55 -137 27 -221 -67 l-37 -42 -1 79 c0
75 2 83 44 155 117 203 166 332 166 433 0 52 -3 63 -29 89 -24 23 -38 29 -73
29 -24 0 -56 -8 -73 -18z m84 -31 c52 -52 31 -184 -58 -365 l-59 -121 -1 200
c0 175 2 205 18 241 29 63 66 79 100 45z"/>
<path d="M5653 1738 l-43 -44 0 -182 c0 -207 3 -197 -96 -349 -44 -68 -50 -84
-39 -93 20 -16 28 -9 82 76 l48 77 5 -143 c6 -160 10 -170 82 -170 67 0 136
48 196 136 20 29 20 33 6 45 -13 11 -18 10 -26 -5 -21 -37 -79 -94 -109 -106
-50 -21 -54 -10 -57 193 l-3 182 85 134 c47 74 86 138 86 142 0 14 -31 33 -38
23 -4 -6 -34 -53 -67 -105 l-60 -94 -5 163 -5 163 -42 -43z"/>
<path d="M17883 1738 l-43 -44 0 -182 c0 -207 3 -197 -96 -349 -44 -68 -50
-84 -39 -93 20 -16 28 -9 82 76 l48 77 5 -143 c6 -160 10 -170 82 -170 67 0
136 48 196 136 20 29 20 33 6 45 -13 11 -18 10 -26 -5 -21 -37 -79 -94 -109
-106 -50 -21 -54 -10 -57 193 l-3 182 85 134 c47 74 86 138 86 142 0 14 -31
33 -38 23 -4 -6 -34 -53 -67 -105 l-60 -94 -5 163 -5 163 -42 -43z"/>
<path d="M4874 1331 c-56 -33 -178 -158 -209 -214 -16 -30 -17 -39 -6 -49 10
-11 17 -7 37 17 l24 30 0 -40 c1 -56 32 -121 72 -145 62 -38 170 -19 222 39
25 28 36 27 36 -3 0 -35 26 -56 66 -56 49 0 84 21 138 81 62 69 69 84 50 100
-12 10 -18 8 -31 -12 -31 -44 -102 -111 -115 -107 -10 4 -14 51 -16 196 -1
106 -6 192 -11 192 -5 0 -23 -6 -41 -14 -28 -11 -37 -11 -59 0 -43 23 -101 17
-157 -15z m132 -27 l34 -16 0 -112 c0 -106 -1 -113 -26 -139 -52 -56 -114 -58
-158 -6 -64 75 -32 229 56 272 41 21 52 21 94 1z"/>
<path d="M18514 1331 c-56 -33 -178 -158 -209 -214 -16 -30 -17 -39 -6 -49 10
-11 17 -7 37 17 l24 30 0 -40 c1 -56 32 -121 72 -145 62 -38 170 -19 222 39
25 28 36 27 36 -3 0 -35 26 -56 66 -56 49 0 84 21 138 81 62 69 69 84 50 100
-12 10 -18 8 -31 -12 -31 -44 -102 -111 -115 -107 -10 4 -14 51 -16 196 -1
106 -6 192 -11 192 -5 0 -23 -6 -41 -14 -28 -11 -37 -11 -59 0 -43 23 -101 17
-157 -15z m132 -27 l34 -16 0 -112 c0 -106 -1 -113 -26 -139 -52 -56 -114 -58
-158 -6 -64 75 -32 229 56 272 41 21 52 21 94 1z"/>
<path d="M7847 1326 c-38 -23 -38 -23 -75 -5 -44 23 -110 24 -160 4 -43 -18
-124 -95 -188 -177 -48 -62 -51 -70 -30 -87 12 -10 18 -7 33 15 l18 28 7 -49
c12 -85 66 -136 151 -143 63 -5 110 13 163 63 l34 32 0 -231 c0 -204 -3 -236
-19 -272 -25 -54 -55 -81 -101 -89 -73 -12 -140 37 -144 107 -2 44 -16 44 -56
3 -33 -34 -34 -37 -20 -63 8 -15 39 -39 69 -54 130 -66 291 -12 348 117 13 32
18 76 21 212 l4 171 28 12 c29 12 80 62 124 121 23 32 24 38 11 49 -12 10 -22
4 -61 -39 -26 -29 -60 -59 -75 -67 l-29 -15 0 191 c0 104 -3 190 -7 190 -5 0
-25 -11 -46 -24z m-77 -44 c23 -18 25 -26 28 -117 l3 -97 -35 -33 c-64 -60
-166 -53 -200 14 -24 45 -21 135 6 182 41 73 135 97 198 51z"/>
<path d="M19567 1326 c-38 -23 -38 -23 -75 -5 -44 23 -110 24 -160 4 -43 -18
-124 -95 -188 -177 -48 -62 -51 -70 -30 -87 12 -10 18 -7 33 15 l18 28 7 -49
c12 -85 66 -136 151 -143 63 -5 110 13 163 63 l34 32 0 -231 c0 -204 -3 -236
-19 -272 -25 -54 -55 -81 -101 -89 -73 -12 -140 37 -144 107 -2 44 -16 44 -56
3 -33 -34 -34 -37 -20 -63 8 -15 39 -39 69 -54 130 -66 291 -12 348 117 13 32
18 76 21 212 l4 171 28 12 c29 12 80 62 124 121 23 32 24 38 11 49 -12 10 -22
4 -61 -39 -26 -29 -60 -59 -75 -67 l-29 -15 0 191 c0 104 -3 190 -7 190 -5 0
-25 -11 -46 -24z m-77 -44 c23 -18 25 -26 28 -117 l3 -97 -35 -33 c-64 -60
-166 -53 -200 14 -24 45 -21 135 6 182 41 73 135 97 198 51z"/>
<path d="M1606 1319 c-57 -31 -216 -205 -216 -238 0 -25 25 -22 47 5 l23 29 0
-40 c0 -57 37 -126 80 -148 48 -25 168 -19 226 11 43 22 134 115 134 137 0 29
-29 22 -59 -15 -43 -54 -128 -94 -179 -85 -34 5 -94 49 -81 58 2 2 35 25 72
51 77 54 116 106 124 165 5 33 1 44 -20 65 -33 33 -94 34 -151 5z m76 -36 c42
-38 10 -121 -70 -177 -53 -37 -65 -28 -64 48 0 62 26 115 64 134 33 15 49 14
70 -5z"/>
<path d="M2796 1319 c-57 -31 -216 -205 -216 -238 0 -25 25 -22 47 5 l23 29 0
-40 c0 -57 37 -126 80 -148 48 -25 168 -19 226 11 43 22 134 115 134 137 0 29
-29 22 -59 -15 -43 -54 -128 -94 -179 -85 -34 5 -94 49 -81 58 2 2 35 25 72
51 77 54 116 106 124 165 5 33 1 44 -20 65 -33 33 -94 34 -151 5z m76 -36 c42
-38 10 -121 -70 -177 -53 -37 -65 -28 -64 48 0 62 26 115 64 134 33 15 49 14
70 -5z"/>
<path d="M4142 1278 c-17 -35 -49 -92 -72 -127 -38 -59 -45 -91 -21 -91 12 0
86 91 107 132 13 25 19 28 69 28 l54 0 -34 -51 c-44 -67 -60 -133 -45 -187 13
-50 42 -72 93 -72 54 0 101 25 148 79 53 59 67 88 50 104 -10 9 -16 7 -29 -13
-30 -46 -99 -110 -119 -110 -37 0 -58 37 -56 94 3 69 24 125 73 198 22 33 40
64 40 69 0 14 -16 11 -30 -6 -25 -30 -95 -27 -181 9 -12 5 -23 -8 -47 -56z"/>
<path d="M6194 1318 c-35 -17 -44 -28 -57 -72 -9 -28 -33 -75 -52 -105 -34
-51 -40 -87 -12 -79 6 3 27 29 45 58 l32 54 0 -90 c0 -94 11 -152 32 -166 7
-4 30 -8 50 -8 43 0 99 39 161 113 37 43 39 49 25 63 -14 14 -19 10 -57 -37
-49 -62 -76 -83 -96 -75 -12 4 -15 37 -15 186 0 99 -3 180 -7 179 -5 0 -26
-10 -49 -21z"/>
<path d="M6728 1322 c-29 -13 -41 -27 -59 -70 -12 -30 -37 -77 -56 -105 -32
-48 -37 -83 -10 -75 6 2 28 31 47 63 l35 59 5 -147 5 -146 42 27 43 27 0 81
c0 79 1 84 41 143 62 93 113 126 124 79 2 -13 6 -87 7 -166 3 -129 5 -145 22
-158 47 -34 128 -4 196 73 57 65 63 78 43 94 -14 12 -18 10 -32 -11 -27 -43
-100 -112 -113 -108 -9 3 -15 46 -20 153 -8 176 -17 198 -88 203 -42 3 -46 1
-112 -68 l-68 -71 0 71 c0 38 -3 70 -7 69 -5 0 -24 -8 -45 -17z"/>
<path d="M10152 1278 c-17 -35 -49 -92 -72 -127 -38 -59 -45 -91 -21 -91 12 0
86 91 107 132 13 25 19 28 69 28 l54 0 -34 -51 c-44 -67 -60 -133 -45 -187 13
-50 42 -72 93 -72 54 0 101 25 148 79 53 59 67 88 50 104 -10 9 -16 7 -29 -13
-30 -46 -99 -110 -119 -110 -37 0 -58 37 -56 94 3 69 24 125 73 198 22 33 40
64 40 69 0 14 -16 11 -30 -6 -25 -30 -95 -27 -181 9 -12 5 -23 -8 -47 -56z"/>
<path d="M10886 1319 c-57 -31 -216 -205 -216 -238 0 -25 25 -22 47 5 l23 29
0 -40 c0 -57 37 -126 80 -148 48 -25 168 -19 226 11 43 22 134 115 134 137 0
29 -29 22 -59 -15 -43 -54 -128 -94 -179 -85 -34 5 -94 49 -81 58 2 2 35 25
72 51 77 54 116 106 124 165 5 33 1 44 -20 65 -33 33 -94 34 -151 5z m76 -36
c42 -38 10 -121 -70 -177 -53 -37 -65 -28 -64 48 0 62 26 115 64 134 33 15 49
14 70 -5z"/>
<path d="M11478 1322 c-29 -13 -41 -27 -59 -70 -12 -30 -37 -77 -56 -105 -32
-48 -37 -83 -10 -75 6 2 28 31 47 63 l35 59 5 -147 5 -146 42 27 43 27 0 81
c0 79 1 84 41 143 62 93 113 126 124 79 2 -13 6 -87 7 -166 3 -129 5 -145 22
-158 47 -34 128 -4 196 73 57 65 63 78 43 94 -14 12 -18 10 -32 -11 -27 -43
-100 -112 -113 -108 -9 3 -15 46 -20 153 -8 176 -17 198 -88 203 -42 3 -46 1
-112 -68 l-68 -71 0 71 c0 38 -3 70 -7 69 -5 0 -24 -8 -45 -17z"/>
<path d="M12335 1321 c-22 -10 -60 -40 -85 -67 -54 -58 -130 -159 -130 -173 0
-19 22 -23 39 -7 17 16 19 14 30 -28 12 -50 50 -100 92 -121 43 -23 126 -19
184 9 51 24 145 114 145 140 0 30 -28 23 -56 -14 -81 -108 -185 -115 -258 -17
-14 20 -21 47 -24 95 -3 58 0 72 20 102 47 69 114 75 166 15 17 -18 32 -39 34
-47 6 -16 54 24 61 52 5 19 -20 48 -60 69 -33 17 -113 13 -158 -8z"/>
<path d="M16106 1319 c-57 -31 -216 -205 -216 -238 0 -25 25 -22 47 5 l23 29
0 -40 c0 -57 37 -126 80 -148 48 -25 168 -19 226 11 43 22 134 115 134 137 0
29 -29 22 -59 -15 -43 -54 -128 -94 -179 -85 -34 5 -94 49 -81 58 2 2 35 25
72 51 77 54 116 106 124 165 5 33 1 44 -20 65 -33 33 -94 34 -151 5z m76 -36
c42 -38 10 -121 -70 -177 -53 -37 -65 -28 -64 48 0 62 26 115 64 134 33 15 49
14 70 -5z"/>
<path d="M16662 1278 c-17 -35 -49 -92 -72 -127 -38 -59 -45 -91 -21 -91 12 0
86 91 107 132 13 25 19 28 69 28 l54 0 -34 -51 c-44 -67 -60 -133 -45 -187 13
-50 42 -72 93 -72 54 0 101 25 148 79 53 59 67 88 50 104 -10 9 -16 7 -29 -13
-30 -46 -99 -110 -119 -110 -37 0 -58 37 -56 94 3 69 24 125 73 198 22 33 40
64 40 69 0 14 -16 11 -30 -6 -25 -30 -95 -27 -181 9 -12 5 -23 -8 -47 -56z"/>
<path d="M17314 1318 c-35 -17 -44 -28 -57 -72 -9 -28 -33 -75 -52 -105 -34
-51 -40 -87 -12 -79 6 3 27 29 45 58 l32 54 0 -90 c0 -94 11 -152 32 -166 7
-4 30 -8 50 -8 43 0 99 39 161 113 37 43 39 49 25 63 -14 14 -19 10 -57 -37
-49 -62 -76 -83 -96 -75 -12 4 -15 37 -15 186 0 99 -3 180 -7 179 -5 0 -26
-10 -49 -21z"/>
<path d="M20146 1319 c-57 -31 -216 -205 -216 -238 0 -25 25 -22 47 5 l23 29
0 -40 c0 -57 37 -126 80 -148 48 -25 168 -19 226 11 43 22 134 115 134 137 0
29 -29 22 -59 -15 -43 -54 -128 -94 -179 -85 -34 5 -94 49 -81 58 2 2 35 25
72 51 77 54 116 106 124 165 5 33 1 44 -20 65 -33 33 -94 34 -151 5z m76 -36
c42 -38 10 -121 -70 -177 -53 -37 -65 -28 -64 48 0 62 26 115 64 134 33 15 49
14 70 -5z"/>
</g>
</svg>
